Coordinates
version=1
nRows=21
nColumns=22
inDegrees=yes

Units are S.I. units (second, meters, Newtons, ...)
If the header above contains a line with 'inDegrees', this indicates whether rotational values are in degrees (yes) or radians (no).

endheader
time	pelvis_tilt	pelvis_list	pelvis_rotation	pelvis_tx	pelvis_ty	pelvis_tz	hip_flexion_r	hip_adduction_r	hip_rotation_r	knee_angle_r	ankle_angle_r	subtalar_angle_r	hip_flexion_l	hip_adduction_l	hip_rotation_l	knee_angle_l	ankle_angle_l	subtalar_angle_l	lumbar_extension	lumbar_bending	lumbar_rotation
      1.17000000	     -1.56453779	     -3.73975973	     -0.40050453	     -1.35760849	      1.01177501	     -0.33010208	     -1.27390167	      8.02550332	     -6.58863611	    -11.82684140	     14.68939184	     -5.74313738	     27.47754732	     -2.82285449	      6.23774027	    -26.28971340	      8.97967019	      3.19324012	    -16.72643770	      2.84919327	     11.18887050
      1.18000000	     -1.56109180	     -3.68678463	     -0.54969102	     -1.35364520	      1.01117509	     -0.33017138	     -1.43902606	      7.93862778	     -6.44253737	    -12.01009276	     14.97278677	     -5.73582940	     27.45223279	     -2.86574855	      6.40917690	    -24.89631771	      8.79248383	      3.59820518	    -16.77566211	      2.78475296	     11.19208948
      1.19000000	     -1.62418130	     -3.63996435	     -0.70585080	     -1.34951531	      1.01042307	     -0.33022910	     -1.55295981	      7.85940760	     -6.27655864	    -12.17552262	     15.26915846	     -5.74170635	     27.49899476	     -2.92146069	      6.57115950	    -23.56427630	      8.59186946	      3.79932564	    -16.73261159	      2.72633425	     11.15206281
      1.20000000	     -1.62432260	     -3.59260228	     -0.89561124	     -1.34519312	      1.00974862	     -0.33024930	     -1.74485858	      7.77028104	     -6.13209322	    -12.34478546	     15.55162048	     -5.70693622	     27.46027109	     -3.00271719	      6.66256560	    -22.28191888	      8.48966326	      4.19241825	    -16.75757034	      2.65591962	     11.15099827
      1.21000000	     -1.67884092	     -3.55264706	     -1.08221343	     -1.34067684	      1.00893230	     -0.33026360	     -1.91035386	      7.69326648	     -5.96087834	    -12.47772137	     15.85683577	     -5.69389889	     27.48715189	     -3.09205331	      6.74881905	    -21.08742211	      8.39223548	      4.40336397	    -16.70047246	      2.59073147	     11.10472036
      1.22000000	     -1.67772282	     -3.50886061	     -1.29908580	     -1.33594173	      1.00818292	     -0.33026732	     -2.15248645	      7.60222505	     -5.78761885	    -12.60598771	     16.13469635	     -5.63599465	     27.43886890	     -3.19640945	      6.76780041	    -19.96472484	      8.38045676	      4.72439123	    -16.70141059	      2.51338653	     11.09365222
      1.23000000	     -1.70727568	     -3.46054752	     -1.51883068	     -1.33099040	      1.00733320	     -0.33029797	     -2.39503646	      7.50647882	     -5.57817255	    -12.69943009	     16.45932569	     -5.59868243	     27.42895481	     -3.29489723	      6.76930060	    -18.94739070	      8.35866627	      4.91322006	    -16.64771092	      2.43450271	     11.04937591
      1.24000000	     -1.69529557	     -3.40388780	     -1.77297486	     -1.32580845	      1.00652367	     -0.33030976	     -2.70440650	      7.39302412	     -5.34504907	    -12.78026765	     16.76824864	     -5.52629840	     27.36122235	     -3.39979806	      6.72528796	    -18.02475568	      8.38687787	      5.11990164	    -16.63058019	      2.33519787	     11.03285318
      1.25000000	     -1.64042149	     -3.34743506	     -2.04160125	     -1.32037576	      1.00575152	     -0.33033989	     -3.09226798	      7.27093202	     -5.09949321	    -12.82933207	     17.03963768	     -5.39123068	     27.23694745	     -3.50622554	      6.66979199	    -17.20837892	      8.46021153	      5.34597397	    -16.64599181	      2.23239392	     11.02472318
      1.26000000	     -1.61794800	     -3.28867238	     -2.33625637	     -1.31476491	      1.00486562	     -0.33037887	     -3.45590119	      7.14067242	     -4.81576802	    -12.88321986	     17.37498522	     -5.28881119	     27.15856941	     -3.61252892	      6.61006392	    -16.53955663	      8.50707191	      5.45752449	    -16.61240790	      2.12781134	     11.02512884
      1.27000000	     -1.57595859	     -3.23831195	     -2.65781973	     -1.30894732	      1.00396264	     -0.33040071	     -3.86258973	      7.01021518	     -4.50262505	    -12.92078643	     17.69917279	     -5.14708945	     27.05730254	     -3.73060400	      6.56680626	    -16.01019968	      8.57805346	      5.53738884	    -16.58866808	      2.02345079	     11.04200262
      1.28000000	     -1.52554019	     -3.19029604	     -2.99334657	     -1.30291771	      1.00302257	     -0.33042890	     -4.30229581	      6.87370399	     -4.17309645	    -12.93682133	     17.99544342	     -4.93504259	     26.94469338	     -3.84473821	      6.55591597	    -15.62428365	      8.67046993	      5.57245625	    -16.55948890	      1.91715515	     11.06166148
      1.29000000	     -1.51073473	     -3.16899960	     -3.35780797	     -1.29677623	      1.00194543	     -0.33045617	     -4.69044724	      6.75645337	     -3.82402729	    -12.99521268	     18.35008543	     -4.77380716	     26.88842183	     -3.98434496	      6.56917637	    -15.41607649	      8.74913159	      5.54779691	    -16.48630256	      1.84266706	     11.10473990
      1.30000000	     -1.50407494	     -3.15558157	     -3.73469493	     -1.29048167	      1.00079267	     -0.33048882	     -5.07334102	      6.64017877	     -3.45270882	    -13.06420658	     18.69183350	     -4.59697869	     26.84542207	     -4.11897166	      6.63912731	    -15.37200971	      8.83888882	      5.48497006	    -16.39665417	      1.77205122	     11.14982413
      1.31000000	     -1.50579549	     -3.13846189	     -4.14484957	     -1.28398116	      0.99958948	     -0.33053123	     -5.45968620	      6.50507904	     -3.06064272	    -13.12835591	     19.02035406	     -4.35317664	     26.79486586	     -4.24831810	      6.68169546	    -15.46131377	      8.92637174	      5.36079211	    -16.27904104	      1.69861784	     11.21554362
      1.32000000	     -1.51641828	     -3.11851922	     -4.55460178	     -1.27729956	      0.99833031	     -0.33063301	     -5.83658527	      6.35532616	     -2.66811843	    -13.20828250	     19.34351332	     -3.99833765	     26.74148516	     -4.35020709	      6.76253027	    -15.68195895	      8.97536684	      5.13397236	    -16.13717655	      1.62756670	     11.24804299
      1.33000000	     -1.54761344	     -3.08504738	     -5.00009224	     -1.27044582	      0.99700441	     -0.33074337	     -6.17746340	      6.17897354	     -2.23279383	    -13.32886612	     19.67071974	     -3.78375805	     26.70346804	     -4.43406982	      6.77406251	    -16.04481748	      9.00515499	      4.97220398	    -15.95621063	      1.54160364	     11.30250214
      1.34000000	     -1.57424148	     -3.03166715	     -5.45836311	     -1.26339783	      0.99567392	     -0.33091052	     -6.50685398	      5.96602862	     -1.78941857	    -13.49666325	     20.02836410	     -3.56713903	     26.63797511	     -4.47812806	      6.74950042	    -16.50380762	      8.96761585	      4.80756600	    -15.76306627	      1.43686725	     11.36546873
      1.35000000	     -1.60055971	     -2.93278325	     -5.91641463	     -1.25612310	      0.99436300	     -0.33114087	     -6.83352844	      5.69366741	     -1.31718507	    -13.68368767	     20.35954528	     -3.29769236	     26.56053985	     -4.45618484	      6.61891960	    -17.05328246	      8.80700684	      4.60865578	    -15.54359875	      1.28719746	     11.38573712
      1.36000000	     -1.61242761	     -2.79598567	     -6.34758370	     -1.24862832	      0.99310720	     -0.33147674	     -7.16979551	      5.37022626	     -0.84654996	    -13.89307043	     20.63631474	     -2.86602694	     26.46798195	     -4.36369288	      6.39887500	    -17.68194961	      8.53768229	      4.29413594	    -15.31599597	      1.10533689	     11.33650968
      1.37000000	     -1.62124615	     -2.58832397	     -6.74919171	     -1.24098098	      0.99189877	     -0.33190599	     -7.47112212	      4.96768489	     -0.39584235	    -14.17197432	     20.93533748	     -2.66894771	     26.38444071	     -4.17221625	      6.09663230	    -18.36808520	      8.05729632	      4.14526822	    -15.07098305	      0.85083655	     11.24683217
